<svg width="112" height="102" viewBox="0 0 112 102" fill="none" xmlns="http://www.w3.org/2000/svg">
<path fill-rule="evenodd" clip-rule="evenodd" d="M39.0435 24.1304H24.5652V38.6087H14.9131V24.1304H0.434814V14.4783H14.9131V0H24.5652V14.4783H39.0435V24.1304ZM86.4839 24.1304H101.783C107.091 24.1304 111.435 28.4739 111.435 33.7826V91.6957C111.435 97.0043 107.091 101.348 101.783 101.348H24.5652C19.2566 101.348 14.9131 97.0043 14.9131 91.6957V48.2609H24.5652V91.6957H101.783V33.7826H82.237L73.4053 24.1304H48.6957V14.4783H77.6522L86.4839 24.1304ZM63.1739 86.8696C49.8539 86.8696 39.0435 76.0591 39.0435 62.7391C39.0435 49.4191 49.8539 38.6087 63.1739 38.6087C76.4939 38.6087 87.3044 49.4191 87.3044 62.7391C87.3044 76.0591 76.4939 86.8696 63.1739 86.8696ZM63.1739 48.2609C71.137 48.2609 77.6522 54.7761 77.6522 62.7391C77.6522 70.7022 71.137 77.2174 63.1739 77.2174C55.2109 77.2174 48.6957 70.7022 48.6957 62.7391C48.6957 54.7761 55.2109 48.2609 63.1739 48.2609Z" fill="white"/>
</svg>
