<svg width="369" height="320" viewBox="0 0 369 320" fill="none" xmlns="http://www.w3.org/2000/svg">
<path fill-rule="evenodd" clip-rule="evenodd" d="M83.0596 50.2615C82.5172 50.3979 82.2477 50.8072 81.6987 51.3529C71.1077 44.0327 52.7839 32.886 40.4394 36.2833C38.9499 36.6578 37.56 37.3528 36.3667 38.3196C28.6306 44.4287 31.4854 57.7349 34.3336 65.7406C38.8054 77.6749 46.1761 88.3091 55.7818 96.6851C58.1105 98.5987 60.5553 100.367 63.102 101.979C62.023 107.249 60.5242 112.424 58.6201 117.455C56.7169 122.342 54.4142 127.104 52.3778 131.845C50.2259 136.905 48.8518 142.26 48.3019 147.73C45.3228 152.444 42.7334 157.392 40.5592 162.527C36.6263 163.612 32.8229 164.833 28.8866 166.324C28.1428 166.628 27.5448 167.207 27.2164 167.94C26.8881 168.674 26.8547 169.506 27.1232 170.263C27.2552 170.647 27.4618 171.001 27.7313 171.305C28.0007 171.609 28.3277 171.857 28.6933 172.034C29.0589 172.211 29.4559 172.313 29.8614 172.336C30.267 172.359 30.6731 172.301 31.0562 172.166C33.3853 171.348 35.5381 170.533 37.8507 169.721C35.6841 176.206 34.1834 182.896 33.372 189.685C21.9645 194.788 11.1708 201.165 1.19637 208.694C0.548197 209.198 0.126495 209.938 0.0241581 210.753C-0.0781784 211.567 0.147229 212.388 0.65068 213.037C1.15413 213.685 1.89444 214.106 2.70876 214.209C3.52308 214.311 4.3447 214.086 4.99287 213.582C13.5772 207.006 22.8666 201.404 32.6898 196.882C32.5086 199.503 32.4632 202.132 32.5535 204.758C32.5439 209.671 32.9524 214.575 33.7747 219.418C33.3688 219.824 32.823 220.084 32.4171 220.503C31.7717 220.974 31.3391 221.681 31.2144 222.47C31.0897 223.259 31.2829 224.065 31.7516 224.712C32.112 225.216 32.6144 225.601 33.1945 225.819C33.7746 226.036 34.4062 226.076 35.0091 225.933C39.9906 247.481 49.9402 267.566 64.0637 284.585C64.3365 284.858 64.4697 285.127 64.8756 285.251C66.9259 286.793 69.1057 288.156 71.3906 289.323C68 292.444 56.1844 292.85 51.9786 293.12C40.8419 293.785 28.8966 296.114 29.8482 310.089C30.2542 317.553 36.2336 320.541 42.885 318.501C46.3345 319.611 50.0521 319.564 53.4727 318.368C56.8953 319.984 60.7584 320.414 64.453 319.592C69.8832 318.774 75.3136 317.825 80.7572 316.874C83.8816 316.331 87.006 315.789 90.1237 315.11C92.4621 314.698 94.775 314.153 97.0512 313.477C99.1632 312.544 101.046 311.162 102.57 309.427C104.093 307.692 105.22 305.646 105.872 303.431C107.566 298.385 107.708 292.947 106.278 287.819C106.17 287.66 106.122 287.468 106.142 287.277C107.226 286.462 108.181 285.646 109.266 284.698C110.62 283.367 112.395 282.55 114.287 282.386C117.861 283.174 121.294 284.503 124.469 286.325C124.605 286.462 124.742 286.462 124.875 286.598C138.723 300.852 156.505 312.395 176.602 313.883C180.769 314.159 184.953 314.023 189.093 313.477C191.318 314.167 193.585 314.712 195.881 315.11C199.005 315.776 202.126 316.331 205.247 316.874C210.678 317.825 216.108 318.774 221.551 319.592C225.246 320.415 229.109 319.985 232.532 318.368C235.952 319.564 239.67 319.611 243.119 318.501C249.774 320.541 255.763 317.549 256.156 310.089C257.104 296.114 245.176 293.785 234.029 293.12C232.532 292.987 229.82 292.987 227.102 292.714C234.689 284.651 241.421 275.826 247.192 266.378C253.574 256.332 259.414 245.878 265.523 235.696C270.09 227.446 275.652 219.787 282.083 212.89C284.433 210.326 287.368 208.367 290.638 207.18C291.397 206.808 292.234 206.622 293.08 206.638L310.193 207.303C310.668 207.311 311.131 207.153 311.502 206.856C311.873 206.559 312.129 206.142 312.226 205.676C312.32 205.193 312.234 204.692 311.985 204.267C311.735 203.842 311.339 203.524 310.871 203.37L296.75 198.616C304.486 193.591 309.647 194.137 318.741 198.343L325.801 201.6C326.19 201.788 326.632 201.836 327.052 201.737C327.472 201.639 327.846 201.399 328.111 201.058C328.379 200.744 328.548 200.357 328.596 199.946C328.644 199.535 328.569 199.12 328.38 198.752L326.48 195.491C327.022 195.764 327.701 196.157 328.244 196.443C332.456 198.752 336.665 201.195 341.007 203.098L347.522 205.946C347.896 206.149 348.327 206.219 348.746 206.146C349.165 206.072 349.546 205.858 349.828 205.54C350.097 205.226 350.267 204.839 350.316 204.429C350.364 204.018 350.29 203.602 350.101 203.234L346.71 196.849C346.545 196.646 346.409 196.423 346.305 196.183C352.884 198.116 359.25 200.709 365.307 203.923C365.611 204.136 365.978 204.239 366.349 204.214C366.719 204.19 367.07 204.04 367.344 203.79C367.664 203.601 367.916 203.314 368.062 202.972C368.208 202.629 368.241 202.249 368.155 201.887C367.186 192.535 363.014 183.806 356.346 177.177C350.129 171.251 342.912 166.472 335.028 163.063C335.161 162.677 335.168 162.259 335.048 161.868C334.929 161.478 334.689 161.136 334.363 160.89C324.996 153.966 313.733 155.456 303.275 158.717C303.287 158.234 303.145 157.76 302.869 157.363C302.599 157.03 302.234 156.786 301.822 156.663C301.411 156.541 300.972 156.546 300.563 156.677C295.881 158.183 291.339 160.092 286.988 162.384C283.963 164.217 281.101 166.305 278.433 168.626L278.569 166.859C278.549 166.429 278.412 166.012 278.173 165.653C277.934 165.294 277.602 165.007 277.212 164.823C276.792 164.673 276.334 164.672 275.914 164.82C275.494 164.969 275.138 165.258 274.906 165.638L269.882 172.702C269.335 173.547 268.744 174.362 268.111 175.145C265.519 178.859 263.206 182.76 261.19 186.817C258.608 191.568 256.166 196.32 253.87 201.208C253.737 201.48 253.601 201.614 253.464 201.873C253.332 189.215 250.85 176.691 246.144 164.939C245.478 163.447 244.802 161.954 244.114 160.461C253.55 160.453 262.978 160.998 272.35 162.091C273.157 162.158 273.958 161.914 274.59 161.409C275.222 160.903 275.636 160.174 275.748 159.373C275.807 158.969 275.782 158.558 275.675 158.164C275.569 157.77 275.382 157.403 275.127 157.084C274.872 156.766 274.554 156.504 274.193 156.313C273.832 156.123 273.436 156.009 273.029 155.979C262.446 154.686 251.786 154.143 241.126 154.352C238.417 149.242 235.331 144.342 231.893 139.691V139.419C237.999 138.334 244.114 137.382 250.356 136.707C264.625 134.737 279.086 134.599 293.389 136.297C293.791 136.36 294.2 136.342 294.595 136.246C294.99 136.15 295.362 135.977 295.689 135.738C296.017 135.498 296.294 135.196 296.506 134.849C296.717 134.502 296.857 134.117 296.92 133.715C296.982 133.314 296.965 132.904 296.868 132.51C296.772 132.115 296.6 131.743 296.36 131.415C296.12 131.088 295.818 130.81 295.471 130.599C295.124 130.388 294.739 130.247 294.338 130.185C279.586 128.446 264.676 128.537 249.947 130.458C244.241 131.123 238.541 131.952 232.841 133.04C233.022 131.236 233.068 129.421 232.978 127.61C232.833 124.297 232.286 121.014 231.347 117.834C237.494 115.953 243.751 114.456 250.084 113.352C250.48 113.289 250.859 113.146 251.199 112.933C251.538 112.719 251.831 112.439 252.059 112.109C252.287 111.779 252.446 111.406 252.525 111.013C252.605 110.619 252.604 110.214 252.522 109.822C252.468 109.421 252.331 109.037 252.12 108.693C251.908 108.349 251.628 108.053 251.295 107.823C250.963 107.594 250.587 107.436 250.19 107.36C249.794 107.284 249.386 107.292 248.992 107.382C242.343 108.515 235.77 110.057 229.311 111.998C225.481 102.969 219.348 95.104 211.526 89.1885C207.314 86.0641 202.968 83.1992 198.902 79.822C194.729 76.4641 190.866 72.738 187.359 68.6886C188.721 65.9926 189.943 63.2283 191.02 60.4067C195.124 48.3167 196.154 35.3948 194.014 22.8074C192.517 14.5256 188.444 1.62877 178.675 0.138105C177.134 -0.112937 175.557 -0.0209305 174.057 0.407601C161.699 3.79819 151.247 22.5346 145.817 34.0739C123.609 31.159 101.134 36.9464 83.0963 50.2249L83.0596 50.2615ZM177.001 285.946C175.837 285.707 174.701 285.343 173.614 284.861C172.255 284.435 170.936 283.888 169.674 283.227C170.347 283.125 171.027 283.08 171.707 283.094C173.15 283.191 174.506 283.821 175.511 284.861C176.053 285.267 176.599 285.673 177.001 285.946Z" fill="#4F321E"/>
<path fill-rule="evenodd" clip-rule="evenodd" d="M276.114 173.401C286.295 164.167 288.871 163.086 301.229 158.604L297.968 162.677C309.238 158.468 322.677 154.801 333.128 162.54L329.328 163.082C338.854 166.419 347.588 171.688 354.982 178.558C361.258 184.964 365.224 193.275 366.255 202.183C358.759 198.247 350.831 195.196 342.631 193.089C343.297 194.852 344.528 197.022 344.934 197.84L348.331 204.219L341.816 201.224C337.603 199.324 333.261 196.879 329.172 194.709C327.681 193.897 324.284 191.991 321.166 190.636L326.593 199.734L319.532 196.609C308.808 191.585 302.836 191.585 293.329 198.376C292.993 198.68 292.63 198.953 292.245 199.191L310.169 205.3L293.2 204.635C292.08 204.648 290.974 204.874 289.939 205.3C286.421 206.652 283.23 208.734 280.576 211.409C274.079 218.467 268.428 226.259 263.739 234.628C257.63 244.809 251.93 255.257 245.552 265.309C229.667 290.155 209.034 314.185 176.718 311.873C154.458 310.246 135.176 295.718 120.922 279.291C108.783 265.289 99.2233 249.246 92.6856 231.906C90.2513 225.595 88.7427 218.964 88.2069 212.221C87.9374 207.896 88.3433 202.176 92.2796 199.597C93.5544 198.833 94.9838 198.364 96.4632 198.223C97.9426 198.082 99.4348 198.273 100.831 198.782L145.498 212.358L145.225 214.397C143.059 232.721 141.422 257.986 153.646 273.448C158.73 279.567 165.398 284.171 172.922 286.758C178.59 289.12 184.845 289.689 190.846 288.388C212.701 283.633 229.81 253.501 239.449 235.17C245.152 224.31 250.31 213.176 255.604 202.179C258.043 197.291 260.355 192.53 262.924 187.792C264.942 183.821 267.256 180.008 269.848 176.385L271.475 173.943L276.5 166.746L276.114 173.401Z" fill="#4F321E"/>
<path fill-rule="evenodd" clip-rule="evenodd" d="M142.929 214.131C137.775 254.998 144.287 278.479 172.117 289.074C222.487 308.213 250.18 208.295 271.765 177.75L273.528 175.304C272.574 177.954 271.849 180.68 271.359 183.453C274.015 179.697 277.015 176.198 280.32 172.998C287.513 166.477 296.474 160.64 292.671 165.122L289.676 168.656C289.676 168.656 307.87 160.374 316.96 160.511C320.383 160.313 323.816 160.632 327.142 161.459L325.103 162.414C321.66 162.268 318.266 163.27 315.453 165.262C333.235 163.093 363.92 183.862 362.702 198.536C362.036 198.536 345.732 190.39 340.844 190.527C338.262 187.812 337.314 187.266 331.341 184.96C330.676 184.687 331.069 184.824 330.257 184.824C330.257 184.96 337.993 192.018 341.39 196.227C342.056 197.717 342.748 199.078 342.748 199.078C337.181 196.633 324.414 188.763 318.175 186.857C317.169 185.772 315.916 184.946 314.522 184.45C313.128 183.954 311.635 183.803 310.169 184.009C314.559 186.389 318.183 189.965 320.621 194.323C311.251 190.114 305.278 189.705 299.439 191.994C295.096 193.764 285.324 198.516 281.381 205.031C286.675 201.371 289.254 200.143 293.326 202.176C293.326 202.176 286.948 201.906 278.935 209.646C252.736 235.167 232.914 313.503 176.845 309.434C114.151 304.955 70.3025 192.124 100.169 201.108L142.929 214.131Z" fill="#EEA55F"/>
<path fill-rule="evenodd" clip-rule="evenodd" d="M232.259 316.085C233.932 316.877 235.756 317.3 237.606 317.323C239.457 317.347 241.291 316.971 242.983 316.221C248.141 318.258 253.707 316.887 254.113 309.979C254.932 297.488 243.932 295.858 233.886 295.179C228.862 294.906 216.374 294.514 212.708 290.291C212.443 290.006 212.219 289.686 212.042 289.34C208.134 282.815 206.87 275.042 208.512 267.615C208.759 266.784 208.839 265.912 208.745 265.05C208.651 264.187 208.386 263.353 207.966 262.594C204.439 257.437 191.406 260.694 186.245 262.188C185.698 262.322 185.213 262.637 184.868 263.081C184.523 263.526 184.339 264.074 184.345 264.637C184.442 272.63 183.575 280.606 181.763 288.391C180.36 293.101 180.455 298.129 182.036 302.782C182.598 304.712 183.569 306.498 184.881 308.02C186.193 309.542 187.817 310.765 189.642 311.606C191.675 312.272 194.121 312.694 196.297 313.234C199.292 313.776 202.406 314.458 205.53 315C210.961 315.949 216.511 316.764 221.958 317.576C225.458 318.455 229.165 317.918 232.273 316.082L232.259 316.085Z" fill="#4F321E"/>
<path fill-rule="evenodd" clip-rule="evenodd" d="M186.913 264.634C186.842 272.85 185.934 281.038 184.202 289.07C181.62 298.437 185.286 307.261 190.584 309.034C195.878 310.938 219.229 314.605 222.347 315.024C225.471 315.566 230.495 315.566 231.444 312.984C231.444 312.984 240.135 316.787 242.424 313.257C242.424 313.257 250.979 317.875 251.521 309.733C252.067 301.721 247.445 298.733 233.736 297.781C220.164 296.966 212.694 295.881 209.709 290.587C205.448 283.496 204.085 275.034 205.906 266.963C208.485 258.412 186.897 264.654 186.897 264.654L186.913 264.634Z" fill="#FBDFB7"/>
<path fill-rule="evenodd" clip-rule="evenodd" d="M43.0081 316.222C44.7005 316.971 46.5344 317.347 48.3851 317.323C50.2357 317.299 52.0594 316.877 53.7321 316.085C56.8398 317.921 60.5467 318.457 64.0471 317.576C69.4774 316.764 75.0273 315.945 80.4709 315C83.5953 314.458 86.7131 313.776 89.7044 313.234C91.8739 312.691 94.3195 312.285 96.3592 311.606C98.1852 310.766 99.8092 309.544 101.122 308.021C102.434 306.499 103.404 304.712 103.966 302.782C105.544 298.129 105.638 293.101 104.235 288.391C102.424 280.606 101.558 272.63 101.653 264.637C101.66 264.075 101.477 263.527 101.132 263.082C100.788 262.637 100.303 262.322 99.7564 262.188C96.6003 261.251 93.3732 260.571 90.107 260.155C86.4469 259.61 80.4576 259.204 78.0286 262.594C77.6086 263.353 77.3443 264.188 77.2512 265.05C77.158 265.912 77.238 266.784 77.4864 267.615C79.1283 275.042 77.8649 282.815 73.9559 289.34C73.78 289.687 73.5559 290.007 73.2904 290.291C69.6303 294.5 57.136 294.91 52.1117 295.179C42.0664 295.845 31.0629 297.488 31.8814 309.979C32.2907 316.9 37.8705 318.258 43.0146 316.222H43.0081Z" fill="#4F321E"/>
<path fill-rule="evenodd" clip-rule="evenodd" d="M99.0777 264.634C99.1497 272.85 100.058 281.038 101.79 289.07C104.372 298.437 100.705 307.261 95.411 309.034C90.1138 310.938 66.7658 314.605 63.648 315.024C60.5236 315.566 55.4993 315.566 54.551 312.984C54.551 312.984 45.8632 316.787 43.5707 313.257C43.5707 313.257 35.016 317.875 34.4736 309.733C33.9313 301.721 38.5462 298.733 52.2583 297.781C65.834 296.966 73.3006 295.881 76.2853 290.587C80.5457 283.495 81.9069 275.034 80.0852 266.963C77.5099 258.412 99.0944 264.654 99.0944 264.654L99.0777 264.634Z" fill="#FBDFB7"/>
<path fill-rule="evenodd" clip-rule="evenodd" d="M59.8443 311.064C62.5628 310.658 81.5654 307.67 89.3048 305.77C96.7681 292.601 74.9107 292.461 74.9107 292.461C75.4383 291.885 75.8942 291.247 76.2683 290.561C77.5317 288.472 78.5372 286.237 79.2628 283.906V283.776L79.3993 283.636V283.364L79.5358 283.094C79.694 282.264 79.9165 281.448 80.2013 280.652V280.379C80.3377 279.713 80.4742 278.888 80.6073 278.206V277.937V277.664L80.7435 277.527V277.255C81.2038 273.806 80.9776 270.301 80.078 266.94C77.5026 258.388 99.0873 264.634 99.0873 264.634C99.0873 264.634 99.0874 270.337 99.7528 276.849V276.985V277.391V277.664V277.8L99.8893 278.073V278.479V278.892L100.022 279.025V279.567V279.973L100.159 280.519V281.184H100.295V281.317V281.454V281.587V281.737V281.873V282.006V282.143H100.432V282.276V282.412V282.549V282.682V282.818V282.951V283.088H100.568V283.221V283.357C100.533 283.594 100.581 283.837 100.704 284.042V284.312V284.448V284.585L100.838 284.991V285.127V285.264L100.971 285.806V285.942L101.107 286.608C101.243 286.881 101.244 287.15 101.38 287.423V287.559V287.829L101.516 288.102V288.238V288.375L101.649 288.508V288.641V288.914L101.786 289.053V289.463H101.922V290.005L102.062 290.414L102.192 290.82V291.226L102.332 291.632V292.175L102.465 292.447V292.584V292.99V293.396V293.532L102.601 293.805V295.435V295.841V296.79L102.465 296.923V297.469V297.874V298.011L102.332 298.144V298.809L102.192 299.085V299.355L102.062 299.764V300.034V300.307L101.922 300.443V300.713L101.786 300.846V301.252L101.649 301.525L101.516 301.797V302.07H101.38V302.476L101.243 302.612V302.749L101.107 302.885V303.022L100.971 303.158L100.838 303.431V303.564L100.704 303.701V303.837L100.568 303.97V304.11L100.432 304.246V304.383L100.295 304.516V304.652L100.159 304.925L100.022 305.198H99.8893V305.334L99.7528 305.467V305.604H99.6164L99.4801 305.74V305.877L99.3436 306.013L99.2104 306.146V306.283L99.0741 306.416L98.9409 306.552L98.8046 306.689L98.6681 306.822L98.5351 306.958L98.3986 307.091L98.2654 307.228L98.1292 307.364L97.9927 307.5L97.8597 307.637L97.7232 307.77H97.59L97.4537 307.906L97.3205 308.043L97.1807 308.179H97.051V308.316H96.9112C96.7748 308.452 96.6384 308.452 96.5053 308.589H96.369L96.2325 308.725H96.0961L95.9596 308.861H95.6901V308.998H95.4173L95.1444 309.137L94.8749 309.271H94.6054L94.4689 309.407H94.1994L93.9267 309.54H93.6572L93.5207 309.676H93.1147L92.9783 309.813H92.5723L92.436 309.946H92.0301L91.7539 310.082H91.3511L91.2149 310.216H90.6724L90.5359 310.352H90.1302L89.8605 310.488H89.3182L89.1818 310.622H88.9123L88.6393 310.758H88.0971L87.9606 310.891H87.4184L87.1422 311.027H86.8727L86.5997 311.161H86.0607C77.2399 312.924 65.6972 314.694 63.6641 314.964C60.5397 315.506 55.5154 315.506 54.5671 312.924C54.5671 312.924 45.8794 316.727 43.5868 313.197C43.5868 313.197 35.5745 317.406 34.4897 310.485C38.8353 313.333 42.7716 308.173 42.7716 308.173C45.2139 311.833 55.2592 307.221 55.2592 307.221C56.0378 309.863 56.7166 311.623 59.841 311.081L59.8443 311.064Z" fill="#FCC390"/>
<path fill-rule="evenodd" clip-rule="evenodd" d="M225.608 311.064C222.613 310.522 199.139 306.992 193.841 305.075C191.651 304.145 189.868 302.459 188.817 300.324C190.038 292.72 198.866 293.938 207.277 294.214C208.967 294.392 210.67 294.059 212.169 293.259C211.119 292.6 210.273 291.661 209.726 290.548C208.272 288.186 207.174 285.623 206.465 282.941L205.923 282.668C204.25 277.578 204.06 272.117 205.378 266.923C207.956 258.372 186.508 264.617 186.508 264.617C186.376 269.974 185.968 275.321 185.287 280.635V281.181C185.172 282.143 184.991 283.096 184.744 284.033C184.541 285.737 184.178 287.418 183.66 289.054C183.383 290.548 183.111 291.902 182.977 293.379C182.312 300.982 185.56 307.501 190.042 308.995C195.335 310.898 218.684 314.565 221.811 314.984C224.932 315.526 229.957 315.526 230.908 312.944C230.908 312.944 239.596 316.747 242.042 313.217C242.042 313.217 250.593 317.426 251.545 310.372C248.93 310.234 246.336 309.825 243.805 309.151C241.363 312.678 232.266 309.011 232.266 309.011C231.454 311.593 228.736 311.593 225.611 311.051L225.608 311.064Z" fill="#FCC390"/>
<path fill-rule="evenodd" clip-rule="evenodd" d="M55.499 313.776C54.5465 310.726 54.7843 307.428 56.1645 304.546V304.682V304.413C55.499 303.325 51.1402 308.888 52.6375 315C52.7147 315.192 52.8295 315.366 52.975 315.513C53.1205 315.66 53.2939 315.776 53.485 315.855C53.676 315.933 53.8809 315.973 54.0875 315.972C54.2942 315.97 54.4982 315.927 54.688 315.845C54.8779 315.764 55.0496 315.645 55.1929 315.496C55.3362 315.347 55.4482 315.171 55.5225 314.979C55.5968 314.786 55.6318 314.58 55.6255 314.373C55.6192 314.167 55.5718 313.964 55.4858 313.776H55.499Z" fill="#4F321E"/>
<path fill-rule="evenodd" clip-rule="evenodd" d="M44.2323 313.773C42.0628 310.655 43.6866 308.342 44.8978 305.088C43.9616 305.54 43.1289 306.181 42.4516 306.97C41.7743 307.759 41.2672 308.679 40.9618 309.672C40.6563 310.666 40.5591 311.712 40.6764 312.745C40.7938 313.778 41.1232 314.776 41.6437 315.676C41.8891 316.003 42.2478 316.225 42.6494 316.301C43.051 316.376 43.4662 316.298 43.8131 316.082C44.1376 315.804 44.3557 315.421 44.4303 315C44.5049 314.579 44.4314 314.146 44.2223 313.773H44.2323Z" fill="#4F321E"/>
<path fill-rule="evenodd" clip-rule="evenodd" d="M230.632 313.234C231.186 311.736 231.413 310.138 231.298 308.545C231.183 306.952 230.729 305.403 229.966 304H230.103L229.966 303.867C230.782 302.782 235.127 308.213 233.626 314.461C233.553 314.654 233.441 314.83 233.296 314.977C233.152 315.123 232.978 315.239 232.787 315.315C232.595 315.391 232.39 315.427 232.184 315.42C231.978 315.413 231.776 315.363 231.59 315.273C231.199 315.122 230.881 314.825 230.704 314.445C230.527 314.064 230.505 313.63 230.642 313.234H230.632Z" fill="#4F321E"/>
<path fill-rule="evenodd" clip-rule="evenodd" d="M242.034 313.234C244.204 310.116 242.577 307.67 241.369 304.546C242.292 304.995 243.112 305.627 243.781 306.405C244.45 307.183 244.952 308.089 245.258 309.069C245.563 310.048 245.665 311.079 245.557 312.1C245.449 313.12 245.134 314.107 244.63 315C244.516 315.172 244.369 315.319 244.197 315.433C244.025 315.547 243.832 315.625 243.629 315.663C243.427 315.701 243.219 315.697 243.017 315.653C242.816 315.609 242.625 315.525 242.457 315.406C242.134 315.157 241.913 314.798 241.838 314.396C241.762 313.995 241.837 313.58 242.048 313.23L242.034 313.234Z" fill="#4F321E"/>
<path fill-rule="evenodd" clip-rule="evenodd" d="M187.456 287.573C183.796 293.409 187.319 299.927 187.862 298.297L187.726 298.161C187.497 295.228 188.16 292.295 189.629 289.746C189.774 289.604 189.889 289.435 189.968 289.249C190.046 289.062 190.087 288.862 190.087 288.659C190.087 288.457 190.046 288.256 189.968 288.07C189.889 287.883 189.774 287.714 189.629 287.573C189.496 287.413 189.329 287.285 189.141 287.198C188.953 287.11 188.748 287.064 188.541 287.064C188.333 287.064 188.128 287.11 187.94 287.198C187.752 287.285 187.586 287.413 187.453 287.573H187.456Z" fill="#4F321E"/>
<path fill-rule="evenodd" clip-rule="evenodd" d="M96.0896 290.834C96.0191 290.829 95.9528 290.798 95.9032 290.748C95.8535 290.698 95.824 290.631 95.8201 290.561C95.8201 290.697 95.9532 290.697 96.0896 290.834ZM96.0896 290.834C97.7233 292.734 97.314 301.814 97.314 301.814C100.568 299.235 100.162 289.463 97.314 287.966C96.9174 287.829 96.4832 287.851 96.1028 288.028C95.7224 288.205 95.4255 288.522 95.2744 288.914C95.2011 289.092 95.1641 289.283 95.1656 289.476C95.167 289.669 95.2069 289.859 95.2827 290.036C95.3586 290.214 95.4689 290.374 95.6075 290.508C95.746 290.642 95.91 290.747 96.0896 290.817V290.834Z" fill="#4F321E"/>
<path fill-rule="evenodd" clip-rule="evenodd" d="M205.241 116.792C192.028 109 177.554 103.576 162.474 100.768C148.97 98.2804 135.13 98.2341 121.611 100.631C96.2284 105.181 73.3362 118.726 57.1295 138.783C42.0513 157.42 34.0655 180.798 34.59 204.765C34.9959 233.956 47.6232 260.831 65.5345 283.231C65.8073 283.504 65.9403 283.637 66.0767 283.78C70.1133 286.739 74.6751 288.904 79.5194 290.162C84.4438 291.567 89.649 291.667 94.624 290.453C99.5989 289.238 104.172 286.751 107.895 283.234C109.638 281.51 111.96 280.495 114.41 280.386C118.287 281.141 122.002 282.566 125.391 284.595C130.593 287.477 136.414 289.061 142.36 289.21C148.588 289.028 154.703 287.5 160.285 284.731C163.546 283.371 168.294 280.792 171.824 281.071C173.691 281.219 175.457 281.982 176.845 283.241C180.644 286.678 185.247 289.103 190.231 290.29C195.214 291.477 200.417 291.388 205.357 290.032C210.142 288.793 214.655 286.677 218.667 283.79C218.835 283.632 218.975 283.447 219.079 283.241C234.422 264.238 246.636 242.241 250.303 217.944C252.987 200.332 250.875 182.322 244.191 165.808C237.202 148.523 226.059 133.228 211.749 121.278C209.787 119.5 207.595 117.994 205.231 116.802L205.241 116.792Z" fill="#4F321E"/>
<path fill-rule="evenodd" clip-rule="evenodd" d="M67.8634 281.467C67.8634 281.467 88.0939 297.349 106.012 281.194C117.551 270.74 125.427 286.352 142.397 286.352C159.366 286.352 168.463 272.234 178.785 281.194C197.108 296.939 216.93 281.467 216.93 281.467C291.463 188.74 212.315 122.625 203.9 119.231C95.8135 56.5103 -18.758 173.674 67.8634 281.467Z" fill="white"/>
<path fill-rule="evenodd" clip-rule="evenodd" d="M245.159 228.798C262.398 164.58 210.674 121.956 203.9 119.238C193.039 112.884 181.34 108.084 169.145 104.98L142.387 182.215C142.387 182.215 130.441 173.531 92.566 175.97C59.0294 178.009 43.2842 218.057 40.1564 227.018C26.5841 169.049 63.2385 117.88 115.641 104.834L142.383 182.218C142.383 182.218 154.335 173.534 192.071 175.973C229.817 178.282 245.023 228.379 245.159 228.785V228.798Z" fill="#EEA55F"/>
<path fill-rule="evenodd" clip-rule="evenodd" d="M44.2327 217.113C48.5917 239.028 58.3443 259.512 72.6085 276.712C72.7758 276.867 72.9134 277.051 73.0145 277.255C73.0145 277.255 74.2355 278.07 76.1321 279.294C82.7016 283.22 90.4091 284.799 97.9929 283.773L100.841 282.954C103.37 282.167 105.755 280.978 107.905 279.431C107.363 279.973 106.681 280.515 106.002 281.194C104.452 282.576 102.769 283.802 100.978 284.854C97.2622 287.1 93.0466 288.387 88.7103 288.6C84.3739 288.813 80.0529 287.944 76.1355 286.072C75.0508 285.666 74.0991 285.124 73.1408 284.718C71.2757 283.801 69.5021 282.709 67.8437 281.457C28.4743 232.581 30.6404 181.806 54.8104 146.642C53.1875 150.303 51.9603 154.127 51.1502 158.048C42.9139 176.576 40.5006 197.169 44.2294 217.099L44.2327 217.113Z" fill="#FCECD6"/>
<path fill-rule="evenodd" clip-rule="evenodd" d="M50.4746 171.903C45.3742 185.924 43.4721 200.908 44.9078 215.758C42.4655 220.782 40.9683 224.855 40.1564 227.025C36.8195 213.349 36.4006 199.124 38.9271 185.276C41.4536 171.428 46.8689 158.268 54.8201 146.652C51.2626 154.472 49.7667 163.072 50.4746 171.634C50.4746 171.634 50.4746 171.77 50.4746 171.907V171.903Z" fill="#E89145"/>
<path fill-rule="evenodd" clip-rule="evenodd" d="M169.133 281.314C176.547 279.066 183.21 274.843 188.408 269.096C180.941 272.756 176.33 276.29 168.314 278.596C167.366 278.736 166.278 279.145 166.414 280.23C166.414 281.181 168.181 281.451 169.133 281.314Z" fill="#4F321E"/>
<path fill-rule="evenodd" clip-rule="evenodd" d="M111.838 280.11C113.605 278.343 119.578 272.79 117.95 269.386C115.021 273.253 111.598 276.721 107.769 279.7C107.422 280.032 107.214 280.484 107.189 280.963C107.164 281.442 107.322 281.913 107.632 282.279C108.175 283.094 111.023 280.789 111.838 280.11Z" fill="#4F321E"/>
<path fill-rule="evenodd" clip-rule="evenodd" d="M65.2748 101.04C64.2184 106.92 62.628 112.692 60.5234 118.283C58.6234 123.171 56.3141 127.789 54.2811 132.674C49.095 144.729 48.6108 158.288 52.9237 170.682C62.1571 194.713 89.8574 202.043 112.933 204.083C123.934 205.466 134.574 208.921 144.29 214.264C146.604 215.906 149.265 216.992 152.066 217.44C154.868 217.887 157.734 217.683 160.444 216.843C163.202 216.216 165.778 214.959 167.968 213.169C170.159 211.379 171.904 209.106 173.068 206.528C178.762 197.045 186.229 188.747 195.062 182.089C212.697 169.737 231.996 151.144 230.905 127.789C230.271 120.525 228.105 113.477 224.549 107.111C220.993 100.745 216.128 95.2044 210.275 90.8555C206.066 87.7344 201.72 84.7464 197.631 81.4889C192.986 77.7444 188.714 73.5602 184.874 68.9946C186.48 66.0328 187.843 62.9446 188.947 59.7611C193.024 48.041 194.096 35.4851 192.064 23.2433C190.71 16.0528 186.907 3.42202 178.355 2.20087C177.088 1.94781 175.777 2.04219 174.559 2.47382C162.743 5.59822 152.292 24.7373 146.998 36.413C135.516 34.641 123.79 35.2828 112.569 38.2975C101.349 41.3122 90.8801 46.6333 81.8318 53.9215C71.3772 46.4549 52.7806 35.0488 40.9651 38.1732C39.7336 38.5399 38.5829 39.1372 37.5744 39.9333C30.6501 45.3669 33.7746 58.1274 36.2202 64.9152C40.4679 76.5981 47.6707 86.981 57.1261 95.0512C59.6898 97.2444 62.411 99.2462 65.2681 101.04H65.2748Z" fill="#4F321E"/>
<path fill-rule="evenodd" clip-rule="evenodd" d="M68.6687 99.41C65.9502 115.834 60.9259 124.665 56.9963 133.895C51.8388 145.84 40.0267 194.852 113.335 200.961C124.831 202.576 135.952 206.207 146.186 211.686C148.057 213.161 150.274 214.135 152.626 214.515C154.978 214.895 157.389 214.669 159.629 213.858C161.961 213.413 164.147 212.399 165.994 210.907C167.841 209.415 169.291 207.49 170.217 205.304C176.308 195.398 184.123 186.662 193.292 179.51C220.719 160.501 228.456 142.576 227.897 127.936C227.081 110.42 214.188 97.5268 208.345 93.331C200.476 87.3417 191.648 82.1977 181.061 69.3008C197.365 43.3706 188.8 1.82824 175.361 5.35858C163.688 8.47966 152.548 31.1558 148.742 39.9633C127.287 34.8059 97.9662 42.6818 81.9483 57.7515C74.3419 52.1848 53.4359 38.0667 41.6271 41.1877C28.1878 44.8478 41.6271 85.0358 68.6421 99.4167L68.6687 99.41Z" fill="white"/>
<path fill-rule="evenodd" clip-rule="evenodd" d="M68.6687 99.4101C65.9502 115.834 60.9291 124.665 56.9928 133.895C54.1413 140.41 49.3899 157.929 57.5353 173.541C57.3988 173.131 53.7321 137.971 71.7864 136.75C89.9805 135.662 103.287 156.025 108.99 143.671C114.829 131.449 117.268 129.696 111.984 109.186C106.687 88.8223 125.157 85.4251 125.157 85.4251C125.157 85.4251 142.939 79.0466 148.509 99.4001C154.212 119.764 157.197 120.03 168.327 127.779C179.457 135.529 180.818 111.352 197.109 103.207C213.532 95.1943 227.927 127.916 227.927 127.916C227.111 110.4 214.218 97.5068 208.375 93.311C200.506 87.3217 191.678 82.1777 181.09 69.2808C197.395 43.3506 188.83 1.80841 175.391 5.33875C163.718 8.45982 152.578 31.1357 148.772 39.9433C127.317 34.7859 97.9961 42.6618 81.9781 57.7314C74.3718 52.1647 53.466 38.0468 41.6571 41.1679C28.2179 44.828 41.657 85.016 68.6719 99.3969L68.6687 99.4101Z" fill="#EEA55F"/>
<path fill-rule="evenodd" clip-rule="evenodd" d="M75.0376 66.0134C69.6073 62.2102 57.662 54.6071 50.8709 56.3639C42.1864 58.6698 51.4133 85.5518 69.471 93.4276C69.8769 89.6245 70.2862 85.5518 70.4226 80.94C70.563 75.6318 72.1608 70.4645 75.041 66.0034L75.0376 66.0134Z" fill="white"/>
<path fill-rule="evenodd" clip-rule="evenodd" d="M158.95 43.6134C161.662 37.5043 168.184 25.0135 174.971 23.1136C183.659 20.8077 189.089 48.6378 177.41 64.516C175.104 61.5214 172.795 58.0043 170.353 54.2011C167.617 49.6751 163.666 46.007 158.95 43.6134Z" fill="white"/>
<path d="M169.948 140.819C169.83 140.899 169.73 141.001 169.652 141.12C169.575 141.238 169.522 141.371 169.496 141.511C169.471 141.65 169.474 141.793 169.504 141.932C169.535 142.07 169.593 142.201 169.675 142.317C169.854 142.527 170.1 142.668 170.372 142.717C170.644 142.766 170.924 142.72 171.165 142.586C171.165 142.586 208.911 118.559 249.638 111.499C249.782 111.485 249.923 111.442 250.05 111.372C250.177 111.302 250.288 111.207 250.377 111.092C250.466 110.977 250.531 110.845 250.567 110.705C250.603 110.564 250.609 110.418 250.586 110.274C250.535 109.994 250.382 109.742 250.156 109.567C249.931 109.392 249.65 109.306 249.365 109.326C208.106 116.52 170.08 140.686 169.944 140.823L169.948 140.819Z" fill="#4F321E"/>
<path d="M171.298 150.595C171.159 150.631 171.03 150.697 170.919 150.788C170.808 150.879 170.718 150.993 170.654 151.122C170.591 151.25 170.557 151.391 170.553 151.535C170.549 151.678 170.576 151.821 170.633 151.953C170.735 152.214 170.93 152.426 171.182 152.55C171.433 152.673 171.722 152.697 171.99 152.618C172.126 152.482 245.711 127.37 293.632 134.291C293.777 134.334 293.93 134.342 294.079 134.314C294.228 134.286 294.367 134.223 294.487 134.13C294.607 134.038 294.702 133.918 294.767 133.781C294.831 133.644 294.862 133.494 294.857 133.343C294.888 133.216 294.89 133.084 294.864 132.956C294.838 132.829 294.784 132.709 294.706 132.604C294.627 132.5 294.527 132.415 294.411 132.354C294.296 132.294 294.168 132.26 294.038 132.255C245.442 125.194 171.448 150.445 171.311 150.582L171.298 150.595Z" fill="#4F321E"/>
<path d="M175.647 163.765C175.379 163.823 175.144 163.982 174.992 164.21C174.84 164.438 174.782 164.716 174.832 164.986C174.921 165.263 175.108 165.497 175.358 165.647C175.608 165.796 175.903 165.85 176.189 165.798C176.326 165.798 225.604 154.395 272.58 160.098C272.715 160.116 272.853 160.104 272.983 160.064C273.114 160.024 273.234 159.957 273.337 159.867C273.44 159.777 273.522 159.666 273.579 159.542C273.635 159.418 273.664 159.283 273.665 159.146C273.713 158.878 273.656 158.601 273.504 158.374C273.353 158.147 273.119 157.987 272.853 157.928C225.471 152.229 175.783 163.628 175.65 163.765H175.647Z" fill="#4F321E"/>
<path fill-rule="evenodd" clip-rule="evenodd" d="M129.084 165.252C128.68 165.76 128.408 166.361 128.292 166.999C128.176 167.637 128.219 168.295 128.418 168.912C130.045 174.476 141.585 180.315 150.003 178.009C158.558 175.837 165.615 164.973 164.124 159.273C163.967 158.657 163.677 158.082 163.275 157.59C162.873 157.097 162.368 156.699 161.795 156.421C155.284 153.573 133.153 159.546 129.081 165.246L129.084 165.252Z" fill="#4F321E"/>
<path fill-rule="evenodd" clip-rule="evenodd" d="M107.363 125.613C107.363 125.613 100.575 101.45 87.3988 101.989C74.0893 102.654 83.0531 129.683 83.0531 129.683C83.0531 129.683 101.517 140.407 107.343 125.607L107.363 125.613Z" fill="white"/>
<path fill-rule="evenodd" clip-rule="evenodd" d="M93.9203 106.334C91.2922 108.018 89.3532 110.586 88.454 113.575C87.5549 116.563 87.755 119.775 89.018 122.629C90.281 125.483 92.5236 127.791 95.3403 129.136C98.157 130.48 101.362 130.772 104.375 129.959C104.648 129.822 104.781 129.822 104.917 129.686C105.946 128.467 106.772 127.091 107.363 125.61C107.363 125.61 103.703 112.3 96.3626 105.646C95.5316 105.809 94.7149 106.038 93.9203 106.331V106.334Z" fill="#955724"/>
<path fill-rule="evenodd" clip-rule="evenodd" d="M95.6837 110.287C93.9317 111.42 92.643 113.142 92.0511 115.143C91.4593 117.143 91.6033 119.29 92.4571 121.193C93.3109 123.097 94.818 124.631 96.7057 125.52C98.5933 126.408 100.737 126.591 102.748 126.036C103.564 125.678 104.298 125.156 104.905 124.503C105.512 123.85 105.978 123.08 106.275 122.239C104.69 117.888 102.594 113.739 100.032 109.881C98.5785 109.537 97.0519 109.68 95.687 110.287H95.6837Z" fill="#4F321E"/>
<path fill-rule="evenodd" clip-rule="evenodd" d="M92.2931 112.307C91.961 112.473 91.6654 112.704 91.4235 112.986C91.1816 113.268 90.9983 113.595 90.8843 113.948C90.7703 114.302 90.7278 114.674 90.7594 115.045C90.7911 115.415 90.8961 115.775 91.0685 116.104C91.1708 116.48 91.3534 116.83 91.6034 117.129C91.8535 117.428 92.1654 117.67 92.5175 117.837C92.8697 118.004 93.2538 118.094 93.6437 118.099C94.0336 118.104 94.4201 118.025 94.7765 117.866C95.1329 117.708 95.4508 117.475 95.7086 117.182C95.9664 116.89 96.1579 116.545 96.27 116.171C96.3821 115.798 96.412 115.405 96.3579 115.019C96.3038 114.632 96.167 114.263 95.9566 113.934C95.8277 113.584 95.6296 113.263 95.3744 112.99C95.1191 112.717 94.8117 112.499 94.4704 112.347C94.1291 112.195 93.761 112.113 93.3876 112.107C93.0141 112.1 92.643 112.168 92.2964 112.307H92.2931Z" fill="white"/>
<path fill-rule="evenodd" clip-rule="evenodd" d="M107.359 125.613C107.359 125.613 100.572 101.323 87.3952 101.989C76.528 102.654 79.2466 120.313 80.4677 125.879C80.2091 126.51 79.75 127.039 79.1613 127.383C78.5725 127.727 77.8868 127.867 77.2102 127.783C79.4582 129.245 82.0112 130.172 84.6734 130.494C84.4006 129.546 76.7976 105.922 88.6131 105.243C100.152 104.701 106.248 124.385 106.937 126.698L107.359 125.613Z" fill="#4F321E"/>
<path fill-rule="evenodd" clip-rule="evenodd" d="M160.707 111.359C160.707 111.359 154.465 86.9193 166.271 80.95C178.08 74.8376 183.783 102.671 183.783 102.671C183.783 102.671 173.195 121.268 160.704 111.359H160.707Z" fill="white"/>
<path fill-rule="evenodd" clip-rule="evenodd" d="M162.747 88.0071C165.914 87.9047 168.993 89.0616 171.309 91.2244C173.625 93.3872 174.99 96.3796 175.105 99.5465C175.77 106.747 171.574 112.989 165.455 113.668H164.79C163.352 113.052 161.986 112.278 160.717 111.362C160.717 111.362 157.32 97.9194 160.311 88.5528C161.091 88.2441 161.916 88.0612 162.753 88.0106L162.747 88.0071Z" fill="#955724"/>
<path fill-rule="evenodd" clip-rule="evenodd" d="M163.159 92.2195C164.215 92.1677 165.27 92.3284 166.262 92.6919C167.254 93.0555 168.163 93.6146 168.936 94.3361C169.708 95.0576 170.327 95.9268 170.757 96.8921C171.186 97.8575 171.418 98.8992 171.438 99.9557C171.638 100.99 171.631 102.053 171.418 103.085C171.205 104.117 170.791 105.096 170.198 105.966C169.605 106.837 168.846 107.582 167.964 108.158C167.082 108.734 166.095 109.129 165.059 109.322C164.164 109.465 163.248 109.405 162.378 109.147C161.509 108.889 160.708 108.439 160.035 107.832C159.234 103.262 158.96 98.6153 159.22 93.9831C160.314 92.9943 161.693 92.3769 163.159 92.2195Z" fill="#4F321E"/>
<path fill-rule="evenodd" clip-rule="evenodd" d="M163.838 93.0315C164.61 93.0231 165.355 93.316 165.914 93.8479C166.473 94.3797 166.803 95.1086 166.833 95.8798C166.959 96.6173 166.787 97.3746 166.355 97.9858C165.924 98.5969 165.267 99.0121 164.53 99.1405C164.164 99.1552 163.797 99.0964 163.454 98.9671C163.11 98.8378 162.796 98.6409 162.53 98.3881C162.264 98.1353 162.051 97.8315 161.904 97.4949C161.758 97.1584 161.68 96.796 161.676 96.4289C161.59 96.0629 161.578 95.6831 161.642 95.3126C161.705 94.942 161.842 94.5879 162.045 94.2713C162.248 93.9548 162.513 93.6824 162.823 93.47C163.133 93.2575 163.483 93.1096 163.852 93.0349L163.838 93.0315Z" fill="white"/>
<path fill-rule="evenodd" clip-rule="evenodd" d="M160.714 111.359C160.714 111.359 154.472 86.9193 166.277 80.95C175.926 76.0621 182.432 92.7587 184.062 98.189C184.62 98.5769 185.283 98.7848 185.962 98.7848C186.641 98.7848 187.304 98.5769 187.862 98.189C186.669 100.578 184.951 102.666 182.837 104.298C182.568 103.213 177.274 78.9135 166.683 84.3338C156.501 89.631 161.116 109.722 161.659 112.031L160.714 111.359Z" fill="#4F321E"/>
<path fill-rule="evenodd" clip-rule="evenodd" d="M74.232 107.828C71.8213 117.752 68.2694 127.364 63.6476 136.47C62.6985 139.006 61.8823 141.589 61.202 144.21C58.7858 149.36 57.4474 154.951 57.269 160.637C56.038 160.793 54.8163 161.016 53.609 161.303C52.2979 152.023 53.4701 142.561 57.0062 133.882C58.5002 130.352 60.1273 127.097 61.7544 123.294C63.1938 119.922 64.4632 116.479 65.5576 112.979C66.926 108.534 67.9701 103.996 68.6819 99.4002C41.667 85.0093 28.2245 44.8313 41.6671 41.1712C53.476 38.0468 74.3818 52.1516 81.9881 57.7349C98.0061 42.6653 127.327 34.7761 148.782 39.9468C152.578 31.1259 163.718 8.45316 175.401 5.34207C176.7 5.03511 178.061 5.1155 179.315 5.57318C180.569 6.03086 181.662 6.84574 182.458 7.91741C182.325 7.91741 182.189 8.05388 182.052 8.05388C170.376 11.1783 159.243 33.851 155.433 42.5388C113.894 32.6299 75.8757 57.7448 75.3334 102.002C75.3521 102.232 75.3048 102.463 75.1969 102.668C74.9241 104.431 74.6545 106.198 74.2452 107.828H74.232ZM50.8805 56.3773C42.1961 58.6832 51.4228 85.5649 69.4804 93.4408C69.8864 89.6376 70.2957 85.565 70.4321 80.9532C70.5703 75.6451 72.167 70.4775 75.0472 66.0166C69.617 62.2134 57.6717 54.6105 50.8805 56.3674V56.3773Z" fill="#E89145"/>
<path fill-rule="evenodd" clip-rule="evenodd" d="M54.0046 163.492C55.0772 163.205 56.1663 162.983 57.2656 162.826C57.1094 166.404 57.2004 169.989 57.5383 173.554C55.8626 170.401 54.6725 167.013 54.0081 163.505L54.0046 163.492Z" fill="#E89145"/>
<path d="M114.15 155.753C114.417 155.778 114.664 155.904 114.84 156.106C115.017 156.308 115.109 156.57 115.099 156.837C115.101 156.981 115.075 157.123 115.022 157.257C114.968 157.39 114.889 157.511 114.787 157.613C114.686 157.714 114.566 157.795 114.433 157.849C114.3 157.904 114.158 157.93 114.014 157.929C113.881 157.929 69.211 155.889 30.3839 170.28C30.1154 170.358 29.8274 170.333 29.5762 170.21C29.325 170.087 29.129 169.875 29.0264 169.614C28.9701 169.483 28.9429 169.34 28.9466 169.197C28.9504 169.053 28.985 168.912 29.0482 168.783C29.1113 168.654 29.2015 168.541 29.3126 168.45C29.4237 168.359 29.5529 168.293 29.6918 168.257C68.9281 153.866 114.001 155.766 114.137 155.766L114.15 155.753Z" fill="#4F321E"/>
<path d="M117.814 164.847C118.102 164.775 118.406 164.82 118.66 164.972C118.915 165.125 119.098 165.372 119.17 165.66C119.242 165.948 119.196 166.252 119.044 166.506C118.891 166.761 118.644 166.944 118.356 167.016C118.084 167.016 41.9233 181.952 3.77171 211.955C3.66587 212.046 3.54284 212.115 3.41001 212.158C3.27718 212.2 3.13728 212.216 2.99835 212.203C2.85942 212.191 2.7243 212.151 2.60112 212.085C2.47793 212.02 2.36912 211.93 2.28105 211.822C2.10452 211.605 2.01999 211.327 2.04547 211.047C2.07096 210.768 2.20449 210.51 2.41753 210.328C40.9684 180.049 117.678 164.983 117.814 164.847Z" fill="#4F321E"/>
<path d="M120.529 178.422C120.672 178.373 120.823 178.357 120.973 178.373C121.123 178.389 121.267 178.437 121.396 178.515C121.526 178.593 121.636 178.697 121.721 178.822C121.806 178.947 121.862 179.088 121.886 179.237C121.939 179.36 121.963 179.494 121.957 179.627C121.951 179.761 121.914 179.892 121.85 180.009C121.786 180.127 121.696 180.228 121.587 180.306C121.478 180.384 121.353 180.436 121.221 180.458C121.084 180.595 72.7544 195.391 34.8756 223.771C34.7638 223.861 34.6337 223.927 34.4942 223.962C34.3547 223.998 34.2091 224.003 34.0675 223.977C33.9259 223.951 33.7916 223.895 33.6737 223.812C33.5559 223.729 33.4575 223.622 33.385 223.498C33.2588 223.276 33.2168 223.016 33.267 222.766C33.3171 222.516 33.4559 222.293 33.6577 222.137C71.8027 193.495 120.406 178.548 120.542 178.425L120.529 178.422Z" fill="#4F321E"/>
<path fill-rule="evenodd" clip-rule="evenodd" d="M83.0599 52.8436C70.702 66.965 69.6204 73.4733 69.2112 94.5223C73.8296 73.7495 69.2113 71.4436 84.5538 55.013C84.7386 54.8568 84.8894 54.6644 84.9969 54.4476C85.1044 54.2308 85.1662 53.9941 85.1787 53.7525C85.1911 53.5108 85.154 53.2692 85.0694 53.0425C84.9848 52.8157 84.8545 52.6089 84.6868 52.4344C84.0213 51.6259 83.7386 52.1649 83.0599 52.8436Z" fill="#4F321E"/>
<path fill-rule="evenodd" clip-rule="evenodd" d="M184.881 69.0014C173.884 57.868 164.654 40.9017 153.114 42.1229C165.605 45.783 174.699 61.9438 182.841 71.3137C183.506 72.1256 183.929 72.262 184.608 71.7197C185 71.3922 185.248 70.9242 185.299 70.4161C185.35 69.9079 185.2 69.4002 184.881 69.0014Z" fill="#4F321E"/>
<path fill-rule="evenodd" clip-rule="evenodd" d="M142.926 188.201C143.59 199.601 145.042 210.941 147.271 222.14C153.114 242.77 184.338 233.819 178.499 213.183C174.323 202.543 169.518 192.161 164.108 182.092C163.423 182.463 162.691 182.738 161.932 182.911C159.001 181.755 155.769 181.608 152.746 182.493C149.722 183.378 147.08 185.245 145.235 187.798C144.42 187.935 143.744 188.068 142.926 188.204V188.201Z" fill="#4F321E"/>
<path fill-rule="evenodd" clip-rule="evenodd" d="M161.798 183.044C167.246 193 172.054 203.294 176.193 213.862C181.214 231.497 154.608 239.113 149.447 221.598C147.364 210.384 146.004 199.047 145.375 187.659C148.328 186.817 150.908 184.999 152.695 182.501C155.594 183.631 158.775 183.82 161.788 183.044H161.798Z" fill="#745038"/>
<path fill-rule="evenodd" clip-rule="evenodd" d="M164.111 231.37C162.847 231.506 161.572 231.506 160.308 231.37C160.172 231.234 148.769 219.558 147.135 186.977C148.251 186.476 149.301 185.837 150.259 185.077C151.89 199.334 155.693 220.104 164.111 231.37Z" fill="#8E705B"/>
<path fill-rule="evenodd" clip-rule="evenodd" d="M168.453 230.149C169.632 229.632 170.729 228.945 171.708 228.109C171.708 227.98 175.241 211.955 159.217 183.45C158.038 183.542 156.854 183.496 155.686 183.313C161.792 196.207 169.661 216.031 168.45 230.149H168.453Z" fill="#8E705B"/>
<path fill-rule="evenodd" clip-rule="evenodd" d="M170.353 211.143C170.125 213.065 170.567 215.008 171.607 216.641C172.646 218.274 174.218 219.497 176.056 220.104C178.638 226.21 188.817 226.888 194.114 224.449C207.959 218.34 196.283 178.834 171.847 192.134C170.731 192.321 169.685 192.805 168.819 193.534C167.953 194.263 167.299 195.212 166.925 196.281C166.551 197.349 166.471 198.499 166.693 199.609C166.915 200.719 167.431 201.749 168.187 202.592C167.713 204.077 167.665 205.666 168.048 207.178C168.432 208.69 169.231 210.063 170.357 211.143H170.353Z" fill="#4F321E"/>
<path fill-rule="evenodd" clip-rule="evenodd" d="M173.065 194.972C194.11 183.163 202.659 217.232 192.886 221.591C187.865 223.9 179.177 222.539 178.635 217.788C178.635 217.788 171.315 215.891 173.747 209.919C173.081 209.549 172.5 209.045 172.038 208.439C171.577 207.833 171.247 207.138 171.068 206.398C170.889 205.658 170.866 204.889 170.999 204.139C171.133 203.389 171.42 202.676 171.844 202.043C171.844 202.043 166.28 197.018 173.065 194.985V194.972Z" fill="#FBDFB7"/>
<path fill-rule="evenodd" clip-rule="evenodd" d="M193.701 217.791C195.199 207.067 186.381 188.471 169.947 197.568H169.674C169.947 196.613 170.895 195.664 173.065 194.986C190.853 185.073 199.814 207.746 196.147 217.791C195.766 218.999 195.061 220.079 194.111 220.916C193.769 221.243 193.347 221.473 192.886 221.581C192.821 221.665 192.739 221.732 192.644 221.78C192.55 221.827 192.446 221.852 192.34 221.854C192.572 221.568 192.757 221.247 192.886 220.903C193.32 219.91 193.595 218.856 193.701 217.778V217.791Z" fill="#FCC390"/>
<path fill-rule="evenodd" clip-rule="evenodd" d="M171.438 202.998C171.42 202.997 171.402 203 171.385 203.007C171.369 203.014 171.353 203.024 171.341 203.037C171.328 203.049 171.318 203.065 171.311 203.081C171.304 203.098 171.301 203.116 171.302 203.134C171.302 202.998 171.302 202.998 171.438 202.998ZM171.438 202.998C172.659 202.179 180.941 199.604 182.299 198.789C179.304 198.652 170.623 198.652 168.453 201.91C168.353 202.132 168.298 202.373 168.292 202.617C168.286 202.861 168.328 203.104 168.417 203.332C168.505 203.56 168.638 203.767 168.808 203.943C168.978 204.119 169.181 204.259 169.405 204.355C170.217 204.765 170.896 203.69 171.438 202.998Z" fill="#4F321E"/>
<path fill-rule="evenodd" clip-rule="evenodd" d="M171.711 211.685C174.562 211.685 184.884 208.428 183.659 206.931C183.383 207.067 183.523 207.067 183.383 207.067V206.931C182.977 205.982 175.923 210.328 172.12 208.564C171.168 208.292 170.493 208.428 170.357 209.516C170.254 209.983 170.338 210.472 170.592 210.878C170.846 211.284 171.249 211.574 171.714 211.685H171.711Z" fill="#4F321E"/>
<path fill-rule="evenodd" clip-rule="evenodd" d="M175.241 218.879C180.126 221.322 189.086 215.352 187.862 214.401H187.592C186.235 214.67 177.001 217.791 175.783 216.57C174.972 216.028 173.884 215.213 173.338 216.028C172.792 216.843 174.289 218.337 175.241 218.883V218.879Z" fill="#4F321E"/>
<path fill-rule="evenodd" clip-rule="evenodd" d="M152.841 219.425C153.419 217.546 153.359 215.529 152.671 213.688C151.983 211.846 150.706 210.284 149.038 209.243C147.95 202.865 138.178 200.01 132.471 201.095C117.678 204.089 120.253 245.083 146.998 237.613C148.138 237.661 149.27 237.408 150.28 236.878C151.29 236.349 152.142 235.562 152.75 234.597C153.358 233.632 153.7 232.523 153.742 231.383C153.784 230.244 153.523 229.113 152.988 228.106C153.768 226.787 154.168 225.278 154.145 223.745C154.121 222.213 153.675 220.717 152.855 219.422L152.841 219.425Z" fill="#4F321E"/>
<path fill-rule="evenodd" clip-rule="evenodd" d="M146.456 234.631C123.244 241.286 122.562 206.252 133.02 204.082C138.45 202.998 146.729 206.252 146.053 211.003C146.053 211.003 152.841 214.534 149.178 219.694C149.741 220.209 150.193 220.832 150.507 221.527C150.82 222.222 150.989 222.974 151.001 223.737C151.014 224.499 150.87 225.256 150.579 225.961C150.289 226.666 149.857 227.304 149.311 227.836C149.311 227.836 153.523 234.089 146.459 234.631H146.456Z" fill="#FBDFB7"/>
<path fill-rule="evenodd" clip-rule="evenodd" d="M131.54 207.606C127.6 217.788 132.085 238.018 150.14 232.725H150.273C149.867 233.68 148.782 234.358 146.469 234.628C126.921 240.328 123.258 216.161 128.958 207.2C129.651 206.145 130.579 205.263 131.669 204.625C132.098 204.386 132.555 204.204 133.03 204.083C133.261 204.102 133.491 204.054 133.696 203.946C133.393 204.234 133.12 204.553 132.884 204.898C132.348 205.758 131.892 206.666 131.523 207.61L131.54 207.606Z" fill="#FCC390"/>
<path fill-rule="evenodd" clip-rule="evenodd" d="M149.853 227.161C148.496 227.567 139.808 228.249 138.314 228.792C141.162 229.607 149.717 231.504 152.565 228.792C152.84 228.391 152.951 227.9 152.876 227.42C152.8 226.94 152.544 226.507 152.159 226.21C151.494 225.667 150.529 226.483 149.85 227.161H149.853Z" fill="#4F321E"/>
<path fill-rule="evenodd" clip-rule="evenodd" d="M151.48 218.61C148.765 217.944 137.901 218.746 138.856 220.51C139.129 220.377 138.993 220.377 139.129 220.377V220.51C139.266 221.595 147.138 218.883 150.396 221.462C151.347 221.867 152.026 222.007 152.432 221.056C152.532 220.833 152.587 220.593 152.594 220.349C152.601 220.105 152.558 219.862 152.47 219.634C152.382 219.407 152.249 219.199 152.08 219.023C151.91 218.847 151.708 218.707 151.484 218.61H151.48Z" fill="#4F321E"/>
<path fill-rule="evenodd" clip-rule="evenodd" d="M149.716 210.734C145.507 207.337 135.462 211.14 136.274 212.364H136.547C138.041 212.364 147.68 211.413 148.632 212.77C149.297 213.586 150.122 214.674 150.938 213.995C151.603 213.329 150.395 211.413 149.716 210.734Z" fill="#4F321E"/>
<path fill-rule="evenodd" clip-rule="evenodd" d="M147.95 173.547L147.405 173.138C148.178 176.874 150.074 180.284 152.838 182.914C163.017 191.192 182.159 177.89 178.495 170.692C178.118 172.88 176.959 174.857 175.235 176.256C162.334 186.98 153.377 181.822 151.474 171.504C150.522 170.553 149.032 169.065 147.944 170.014C147.486 170.488 147.23 171.121 147.23 171.78C147.23 172.439 147.486 173.073 147.944 173.547H147.95Z" fill="#4F321E"/>
<path fill-rule="evenodd" clip-rule="evenodd" d="M148.23 175.434C151.89 188.607 134.651 191.049 126.505 188.471C125.84 192.131 148.366 196.749 152.436 183.852C153.017 180.474 152.926 177.014 152.166 173.671C152.125 173.404 152.023 173.151 151.869 172.93C151.715 172.708 151.512 172.525 151.277 172.394C151.041 172.263 150.779 172.187 150.51 172.173C150.241 172.158 149.972 172.205 149.724 172.31C149.411 172.402 149.121 172.56 148.873 172.772C148.624 172.984 148.424 173.245 148.283 173.54C148.142 173.835 148.065 174.155 148.057 174.482C148.048 174.808 148.108 175.132 148.233 175.434H148.23Z" fill="#4F321E"/>
</svg>
