<svg width="84" height="101" viewBox="0 0 84 101" fill="none" xmlns="http://www.w3.org/2000/svg">
<g clip-path="url(#clip0)">
<path d="M76.0579 11.5342H75.9867V17.4766H76.0703C76.3032 17.49 76.5312 17.5497 76.7409 17.6521C76.9506 17.7545 77.138 17.8977 77.2921 18.0733C77.4462 18.2489 77.5639 18.4535 77.6386 18.6751C77.7132 18.8967 77.7432 19.131 77.7269 19.3643V93.0768C77.7389 93.2969 77.704 93.5169 77.6246 93.7224C77.5452 93.9278 77.4231 94.114 77.2664 94.2685C77.1097 94.423 76.922 94.5422 76.7158 94.6184C76.5095 94.6945 76.2895 94.7257 76.0703 94.7099H16.3826V17.4766H55.421V11.5342H7.94205C5.83623 11.5342 3.8166 12.3728 2.32727 13.8656C0.837933 15.3584 0.000820985 17.3832 0 19.4947V93.0396C0.000820985 95.1511 0.837933 97.1759 2.32727 98.6687C3.8166 100.162 5.83623 101 7.94205 101H76.061C78.1666 101 80.1859 100.161 81.6747 98.6685C83.1636 97.1756 84 95.1509 84 93.0396V19.4947C83.9992 17.3832 83.1621 15.3584 81.6727 13.8656C80.1834 12.3728 78.1638 11.5342 76.0579 11.5342V11.5342ZM10.1095 94.713H7.94205C7.72287 94.7288 7.50284 94.6976 7.29662 94.6215C7.09039 94.5454 6.90269 94.4261 6.74599 94.2716C6.58929 94.1171 6.46718 93.931 6.38779 93.7255C6.3084 93.52 6.27354 93.3 6.28553 93.0799V19.3612C6.26915 19.1279 6.29916 18.8936 6.3738 18.672C6.44844 18.4504 6.56623 18.2458 6.72033 18.0702C6.87443 17.8946 7.06179 17.7514 7.27151 17.649C7.48124 17.5466 7.70916 17.4869 7.94205 17.4735H10.1095V94.713Z" fill="white"/>
<path d="M28.415 33.5404H49.1758C49.7115 33.5554 50.2448 33.4625 50.7441 33.2672C51.2434 33.0719 51.6986 32.7783 52.0828 32.4036C52.467 32.0289 52.7724 31.5808 52.981 31.0858C53.1895 30.5907 53.2969 30.0588 53.2969 29.5214C53.2969 28.984 53.1895 28.452 52.981 27.957C52.7724 27.4619 52.467 27.0138 52.0828 26.6391C51.6986 26.2644 51.2434 25.9708 50.7441 25.7755C50.2448 25.5803 49.7115 25.4874 49.1758 25.5023H28.415C27.8792 25.4874 27.3459 25.5803 26.8466 25.7755C26.3473 25.9708 25.8921 26.2644 25.5079 26.6391C25.1237 27.0138 24.8183 27.4619 24.6098 27.957C24.4013 28.452 24.2938 28.984 24.2938 29.5214C24.2938 30.0588 24.4013 30.5907 24.6098 31.0858C24.8183 31.5808 25.1237 32.0289 25.5079 32.4036C25.8921 32.7783 26.3473 33.0719 26.8466 33.2672C27.3459 33.4625 27.8792 33.5554 28.415 33.5404V33.5404Z" fill="white"/>
<path d="M28.4148 51.7248H65.5706C66.6514 51.6831 67.674 51.2232 68.4239 50.4418C69.1739 49.6603 69.5928 48.6179 69.5928 47.5334C69.5928 46.4489 69.1739 45.4066 68.4239 44.6251C67.674 43.8436 66.6514 43.3838 65.5706 43.342H28.4148C27.334 43.3838 26.3114 43.8436 25.5614 44.6251C24.8115 45.4066 24.3926 46.4489 24.3926 47.5334C24.3926 48.6179 24.8115 49.6603 25.5614 50.4418C26.3114 51.2232 27.334 51.6831 28.4148 51.7248Z" fill="white"/>
<path d="M28.4148 69.546H65.5706C66.6514 69.5043 67.674 69.0444 68.4239 68.2629C69.1739 67.4815 69.5928 66.4391 69.5928 65.3546C69.5928 64.2701 69.1739 63.2277 68.4239 62.4462C67.674 61.6648 66.6514 61.2049 65.5706 61.1632H28.4148C27.334 61.2049 26.3114 61.6648 25.5614 62.4462C24.8115 63.2277 24.3926 64.2701 24.3926 65.3546C24.3926 66.4391 24.8115 67.4815 25.5614 68.2629C26.3114 69.0444 27.334 69.5043 28.4148 69.546V69.546Z" fill="white"/>
<path d="M49.1293 87.0225H65.5398C66.0755 87.0374 66.6088 86.9445 67.1081 86.7492C67.6074 86.554 68.0627 86.2603 68.4469 85.8856C68.8311 85.511 69.1364 85.0628 69.345 84.5678C69.5535 84.0727 69.6609 83.5408 69.6609 83.0034C69.6609 82.466 69.5535 81.9341 69.345 81.439C69.1364 80.944 68.8311 80.4959 68.4469 80.1212C68.0627 79.7465 67.6074 79.4528 67.1081 79.2576C66.6088 79.0623 66.0755 78.9694 65.5398 78.9843H49.1293C48.5936 78.9694 48.0603 79.0623 47.561 79.2576C47.0617 79.4528 46.6065 79.7465 46.2223 80.1212C45.8381 80.4959 45.5327 80.944 45.3242 81.439C45.1156 81.9341 45.0082 82.466 45.0082 83.0034C45.0082 83.5408 45.1156 84.0727 45.3242 84.5678C45.5327 85.0628 45.8381 85.511 46.2223 85.8856C46.6065 86.2603 47.0617 86.554 47.561 86.7492C48.0603 86.9445 48.5936 87.0374 49.1293 87.0225V87.0225Z" fill="white"/>
<path d="M62.9047 34.8134C63.1816 35.2661 63.5696 35.6401 64.0318 35.8995C64.4939 36.1589 65.0147 36.2952 65.5443 36.2952C66.074 36.2952 66.5947 36.1589 67.0569 35.8995C67.519 35.6401 67.9071 35.2661 68.1839 34.8134L71.3143 29.6533C71.6153 29.1812 71.7833 28.6362 71.8004 28.0761V3.23823C71.7892 2.39726 71.4567 1.59264 70.8714 0.990175C70.2861 0.387713 69.4927 0.0333123 68.6546 0L62.4805 0C61.6349 0.0285537 60.8317 0.377724 60.2328 0.977021C59.634 1.57632 59.2843 2.38111 59.2542 3.22892V28.0668C59.283 28.6294 59.4615 29.174 59.7712 29.644L62.9047 34.8134Z" fill="white"/>
</g>
</svg>
