<svg width="170" height="170" viewBox="0 0 170 170" fill="none" xmlns="http://www.w3.org/2000/svg">
<g clip-path="url(#clip0)">
<path d="M70 140C108.66 140 140 108.66 140 70C140 31.3401 108.66 0 70 0C31.3401 0 0 31.3401 0 70C0 108.66 31.3401 140 70 140Z" fill="#86AAD1"/>
<path d="M20.7535 119.748L119.748 20.7535C132.876 33.881 140.251 51.6858 140.251 70.251C140.251 88.8161 132.876 106.621 119.748 119.748C106.621 132.876 88.8162 140.251 70.251 140.251C51.6858 140.251 33.8811 132.876 20.7535 119.748Z" fill="#5D85B1"/>
<path d="M41.4277 73.6914H45.1338V78.9248H41.4277V86H34.9365V78.9248H21.5273L21.2354 74.8369L34.8691 53.2969H41.4277V73.6914ZM27.7041 73.6914H34.9365V62.1465L34.5098 62.8877L27.7041 73.6914ZM70.6494 72.4785C70.6494 77.0007 69.7135 80.4596 67.8418 82.8555C65.9701 85.2513 63.2298 86.4492 59.6211 86.4492C56.0573 86.4492 53.332 85.2738 51.4453 82.9229C49.5586 80.5719 48.5928 77.2028 48.5479 72.8154V66.7959C48.5479 62.2288 49.4912 58.7624 51.3779 56.3965C53.2796 54.0306 56.0124 52.8477 59.5762 52.8477C63.14 52.8477 65.8652 54.0231 67.752 56.374C69.6387 58.71 70.6045 62.0716 70.6494 66.459V72.4785ZM64.1582 65.875C64.1582 63.1647 63.7839 61.1956 63.0352 59.9678C62.3014 58.7249 61.1484 58.1035 59.5762 58.1035C58.0488 58.1035 56.9183 58.695 56.1846 59.8779C55.4658 61.0459 55.084 62.8802 55.0391 65.3809V73.332C55.0391 75.9974 55.3984 77.9814 56.1172 79.2842C56.8509 80.5719 58.0189 81.2158 59.6211 81.2158C61.2083 81.2158 62.3538 80.5944 63.0576 79.3516C63.7614 78.1087 64.1283 76.207 64.1582 73.6465V65.875ZM97.0635 72.4785C97.0635 77.0007 96.1276 80.4596 94.2559 82.8555C92.3841 85.2513 89.6439 86.4492 86.0352 86.4492C82.4714 86.4492 79.7461 85.2738 77.8594 82.9229C75.9727 80.5719 75.0068 77.2028 74.9619 72.8154V66.7959C74.9619 62.2288 75.9053 58.7624 77.792 56.3965C79.6937 54.0306 82.4264 52.8477 85.9902 52.8477C89.554 52.8477 92.2793 54.0231 94.166 56.374C96.0527 58.71 97.0186 62.0716 97.0635 66.459V72.4785ZM90.5723 65.875C90.5723 63.1647 90.1979 61.1956 89.4492 59.9678C88.7155 58.7249 87.5625 58.1035 85.9902 58.1035C84.4629 58.1035 83.3324 58.695 82.5986 59.8779C81.8799 61.0459 81.498 62.8802 81.4531 65.3809V73.332C81.4531 75.9974 81.8125 77.9814 82.5312 79.2842C83.265 80.5719 84.4329 81.2158 86.0352 81.2158C87.6224 81.2158 88.7679 80.5944 89.4717 79.3516C90.1755 78.1087 90.5423 76.207 90.5723 73.6465V65.875Z" fill="white"/>
<path d="M103.359 86.9922V91H101.016V79.625H105.453C106.307 79.625 107.057 79.7812 107.703 80.0938C108.354 80.4062 108.854 80.8516 109.203 81.4297C109.552 82.0026 109.727 82.6562 109.727 83.3906C109.727 84.5052 109.344 85.3854 108.578 86.0312C107.818 86.6719 106.763 86.9922 105.414 86.9922H103.359ZM103.359 85.0938H105.453C106.073 85.0938 106.544 84.9479 106.867 84.6562C107.195 84.3646 107.359 83.9479 107.359 83.4062C107.359 82.849 107.195 82.3984 106.867 82.0547C106.539 81.7109 106.086 81.5339 105.508 81.5234H103.359V85.0938ZM114.008 80.4688V82.5469H115.453V84.2031H114.008V88.4219C114.008 88.7344 114.068 88.9583 114.188 89.0938C114.307 89.2292 114.536 89.2969 114.875 89.2969C115.125 89.2969 115.346 89.2786 115.539 89.2422V90.9531C115.096 91.0885 114.641 91.1562 114.172 91.1562C112.589 91.1562 111.781 90.3568 111.75 88.7578V84.2031H110.516V82.5469H111.75V80.4688H114.008ZM121.289 88.6641C121.289 88.388 121.151 88.1719 120.875 88.0156C120.604 87.8542 120.167 87.7109 119.562 87.5859C117.552 87.1641 116.547 86.3099 116.547 85.0234C116.547 84.2734 116.857 83.6484 117.477 83.1484C118.102 82.6432 118.917 82.3906 119.922 82.3906C120.995 82.3906 121.852 82.6432 122.492 83.1484C123.138 83.6536 123.461 84.3099 123.461 85.1172H121.203C121.203 84.7943 121.099 84.5286 120.891 84.3203C120.682 84.1068 120.357 84 119.914 84C119.534 84 119.24 84.0859 119.031 84.2578C118.823 84.4297 118.719 84.6484 118.719 84.9141C118.719 85.1641 118.836 85.3672 119.07 85.5234C119.31 85.6745 119.711 85.8073 120.273 85.9219C120.836 86.0312 121.31 86.1562 121.695 86.2969C122.888 86.7344 123.484 87.4922 123.484 88.5703C123.484 89.3411 123.154 89.9661 122.492 90.4453C121.831 90.9193 120.977 91.1562 119.93 91.1562C119.221 91.1562 118.591 91.0312 118.039 90.7812C117.492 90.526 117.062 90.1797 116.75 89.7422C116.438 89.2995 116.281 88.8229 116.281 88.3125H118.422C118.443 88.7135 118.591 89.0208 118.867 89.2344C119.143 89.4479 119.513 89.5547 119.977 89.5547C120.409 89.5547 120.734 89.474 120.953 89.3125C121.177 89.1458 121.289 88.9297 121.289 88.6641Z" fill="white"/>
</g>
</svg>
