<svg width="111" height="111" viewBox="0 0 111 111" fill="none" xmlns="http://www.w3.org/2000/svg">
<path fill-rule="evenodd" clip-rule="evenodd" d="M55.5001 9.25012C29.9701 9.25012 9.25012 29.9701 9.25012 55.5001C9.25012 81.0301 29.9701 101.75 55.5001 101.75C81.0301 101.75 101.75 81.0301 101.75 55.5001C101.75 29.9701 81.0301 9.25012 55.5001 9.25012ZM18.5002 55.5002C18.5002 52.6789 18.8702 49.9039 19.4715 47.2677L41.579 69.3752V74.0002C41.579 79.0877 45.7415 83.2502 50.829 83.2502V92.1764C32.6527 89.8639 18.5002 74.3239 18.5002 55.5002ZM73.9539 74.0002C78.1164 74.0002 81.5389 76.7289 82.7414 80.4752C88.7539 73.9077 92.5001 65.1202 92.5001 55.5002C92.5001 40.0064 82.8801 26.6864 69.3289 21.2289V23.1252C69.3289 28.2127 65.1664 32.3752 60.0789 32.3752H50.8289V41.6252C50.8289 44.1689 48.7476 46.2502 46.2039 46.2502H36.9539V55.5002H64.7039C67.2476 55.5002 69.3289 57.5814 69.3289 60.1252V74.0002H73.9539Z" fill="white"/>
</svg>
