<svg xmlns="http://www.w3.org/2000/svg" height="527.44423pt" viewBox="0 0 527.44423 527.44423" width="527.44423pt">
    <g fill="#80deea">
    <path d="m445.195312 449.695312-30.96875-11.308593c5.703126-15.605469 10.695313-31.710938 14.832032-47.847657l31.945312 8.207032c-4.433594 17.191406-9.742187 34.335937-15.808594 50.949218zm0 0"/>
    <path d="m468.386719 365.714844-32.386719-6.179688c5.980469-31.398437 9.03125-63.621094 9.03125-95.8125 0-58.101562-28.25-113.136718-75.554688-147.222656l19.25-26.753906c55.910157 40.269531 89.269532 105.292968 89.269532 173.976562 0 34.25-3.230469 68.566406-9.609375 101.992188zm0 0"/>
    <path d="m112.625 163.589844-27.460938-18.261719c39.90625-60.03125 106.660157-95.878906 178.558594-95.878906 31.152344 0 61.183594 6.542969 89.300782 19.496093l-13.777344 29.933594c-23.753906-10.925781-49.167969-16.464844-75.523438-16.464844-60.820312 0-117.308594 30.34375-151.097656 81.175782zm0 0"/>
    <path d="m61.613281 339.261719-28.300781-16.894531c10.546875-17.703126 16.136719-37.976563 16.136719-58.644532 0-29.800781 6-58.628906 17.867187-85.695312l30.195313 13.238281c-10.003907 22.859375-15.097657 47.253906-15.097657 72.457031 0 26.601563-7.203124 52.726563-20.800781 75.539063zm0 0"/>
    <path d="m365.816406 468.617188-29.753906-14.191407c21.542969-45.144531 35.175781-93.257812 40.5-143.003906l32.765625 3.511719c-5.71875 53.453125-20.355469 105.160156-43.511719 153.683594zm0 0"/>
    <path d="m411.753906 280.78125-32.933594-1.152344c.179688-5.277344.28125-10.582031.28125-15.90625 0-63.605468-51.773437-115.378906-115.378906-115.378906-14.964844 0-29.519531 2.835938-43.234375 8.421875l-12.429687-30.558594c17.6875-7.167969 36.410156-10.828125 55.664062-10.828125 81.804688 0 148.34375 66.539063 148.34375 148.34375 0 5.71875-.097656 11.390625-.3125 17.058594zm0 0"/>
    <path d="m94.199219 405.917969-24.558594-21.988281c29.503906-32.933594 45.738281-75.621094 45.738281-120.207032 0-42.507812 18.34375-83.054687 50.355469-111.257812l21.789063 24.722656c-24.90625 21.957031-39.179688 53.488281-39.179688 86.535156 0 52.710938-19.234375 103.230469-54.144531 142.195313zm0 0"/>
    <path d="m269.359375 502.785156-26.75-19.25c13.925781-19.367187 26.058594-40.183594 36.078125-61.894531l29.933594 13.8125c-10.910156 23.621094-24.113282 46.285156-39.261719 67.332031zm0 0"/>
    <path d="m322.613281 401.089844-31.070312-11.011719c14.359375-40.433594 21.628906-82.941406 21.628906-126.355469 0-27.261718-22.1875-49.449218-49.449219-49.449218-17.605468 0-34.019531 9.476562-42.839844 24.726562-4.316406 7.464844-6.609374 16.019531-6.609374 24.722656 0 11.769532-.742188 23.570313-2.191407 35.042969l-32.703125-4.15625c1.289063-10.101563 1.929688-20.488281 1.929688-30.886719 0-14.523437 3.808594-28.761718 11.042968-41.238281 14.6875-25.386719 42.03125-41.175781 71.371094-41.175781 45.441406 0 82.414063 36.972656 82.414063 82.414062 0 47.171875-7.914063 93.390625-23.523438 137.367188zm0 0"/>
    <path d="m140.203125 453.222656-24.28125-22.316406c27.542969-29.949219 47.4375-66.394531 57.542969-105.40625l31.910156 8.273438c-11.441406 44.238281-33.988281 85.527343-65.171875 119.449218zm0 0"/>
    <path d="m198.847656 486.484375-25.203125-21.246094c47.453125-56.355469 73.59375-127.921875 73.59375-201.515625h32.964844c0 81.359375-28.890625 160.441406-81.355469 222.761719zm0 0"/>
    </g>
</svg>
