<svg width="106" height="106" viewBox="0 0 106 106" fill="none" xmlns="http://www.w3.org/2000/svg">
<path d="M34.1521 68.5281H34.1569C34.161 68.5281 34.165 68.5273 34.1691 68.5273H90.4727C91.8588 68.5273 93.0775 67.6078 93.4584 66.2751L105.88 22.7985C106.148 21.8612 105.96 20.8535 105.374 20.0756C104.787 19.2976 103.869 18.8398 102.895 18.8398H26.9901L24.7702 8.84978C24.4539 7.42886 23.194 6.41797 21.7383 6.41797H3.10547C1.39018 6.41797 0 7.80815 0 9.52344C0 11.2387 1.39018 12.6289 3.10547 12.6289H19.2474C19.6405 14.3992 29.8707 60.4361 30.4595 63.0847C27.1591 64.5193 24.8438 67.81 24.8438 71.6328C24.8438 76.7698 29.0232 80.9492 34.1602 80.9492H90.4727C92.1879 80.9492 93.5781 79.559 93.5781 77.8437C93.5781 76.1285 92.1879 74.7383 90.4727 74.7383H34.1602C32.4481 74.7383 31.0547 73.3449 31.0547 71.6328C31.0547 69.9232 32.4433 68.5322 34.1521 68.5281V68.5281ZM98.7774 25.0508L88.1298 62.3164H36.651L28.3698 25.0508H98.7774Z" fill="white"/>
<path d="M31.0547 90.2656C31.0547 95.4026 35.2341 99.582 40.3711 99.582C45.5081 99.582 49.6875 95.4026 49.6875 90.2656C49.6875 85.1287 45.5081 80.9492 40.3711 80.9492C35.2341 80.9492 31.0547 85.1287 31.0547 90.2656ZM40.3711 87.1602C42.0831 87.1602 43.4766 88.5536 43.4766 90.2656C43.4766 91.9777 42.0831 93.3711 40.3711 93.3711C38.659 93.3711 37.2656 91.9777 37.2656 90.2656C37.2656 88.5536 38.659 87.1602 40.3711 87.1602Z" fill="white"/>
<path d="M74.9453 90.2656C74.9453 95.4026 79.1248 99.582 84.2617 99.582C89.3987 99.582 93.5781 95.4026 93.5781 90.2656C93.5781 85.1287 89.3987 80.9492 84.2617 80.9492C79.1248 80.9492 74.9453 85.1287 74.9453 90.2656ZM84.2617 87.1602C85.9738 87.1602 87.3672 88.5536 87.3672 90.2656C87.3672 91.9777 85.9738 93.3711 84.2617 93.3711C82.5497 93.3711 81.1562 91.9777 81.1562 90.2656C81.1562 88.5536 82.5497 87.1602 84.2617 87.1602Z" fill="white"/>
</svg>
